<?xml version="1.0" encoding="UTF-8"?>
<!DOCTYPE svg PUBLIC "-//W3C//DTD SVG 1.1//EN" "http://www.w3.org/Graphics/SVG/1.1/DTD/svg11.dtd">
<!-- Creator: CorelDRAW 2018 (64-Bit) -->
<svg xmlns="http://www.w3.org/2000/svg" xml:space="preserve" width="103.997mm" height="28.5659mm" version="1.1"
     style="shape-rendering:geometricPrecision; text-rendering:geometricPrecision; image-rendering:optimizeQuality; fill-rule:evenodd; clip-rule:evenodd"
     viewBox="0 0 9546.05 2622.12"
>
 <defs>
  <style type="text/css">
   <![CDATA[
    .fil1 {fill:#434090}
    .fil0 {fill:#434090;fill-rule:nonzero}
   ]]>
  </style>
 </defs>
    <g id="Layer_x0020_1">
  <metadata id="CorelCorpID_0Corel-Layer"/>
        <g id="_878105936">
   <polygon class="fil0"
            points="39.51,2085.51 497.11,2085.51 497.11,2177.03 314.86,2177.03 314.86,2609.6 221.77,2609.6 221.77,2177.03 39.51,2177.03 "/>
            <path class="fil0"
                  d="M684.84 2385.88l0 -300.37 93.09 0 0 298.02c0,42.77 12.51,77.97 37.54,105.61 25.03,27.64 57.62,41.45 97.78,41.45 41.19,0 74.18,-13.81 98.95,-41.45 24.77,-27.64 37.16,-62.84 37.16,-105.61l0 -298.02 93.87 0 0 300.37c0,71.45 -20.99,128.67 -62.97,171.7 -41.99,43.02 -97.39,64.54 -166.23,64.54 -68.83,0 -124.25,-21.52 -166.22,-64.54 -41.99,-43.02 -62.97,-100.25 -62.97,-171.7z"/>
            <path class="fil0"
                  d="M1496.79 2085.51l263.61 0 0 91.52 -258.13 0c-16.71,0 -30,4.83 -39.9,14.48 -9.9,9.66 -14.86,20.99 -14.86,34.03 0,11.47 3.52,21.89 10.57,31.28 7.04,9.39 17.33,15.65 30.89,18.78l190.08 45.36c37.55,9.39 66.22,27.25 86.05,53.58 19.81,26.34 29.72,55.41 29.72,87.22 0,40.17 -13.69,74.84 -41.06,104.04 -27.38,29.21 -65.06,43.8 -113.03,43.8l-275.35 0 0 -91.52 271.44 0c17.72,0 31.8,-5.48 42.23,-16.43 10.43,-10.95 15.65,-23.46 15.65,-37.54 0,-12 -3.91,-23.08 -11.73,-33.25 -7.83,-10.17 -18.77,-16.82 -32.86,-19.95l-190.86 -45.37c-37.03,-8.86 -65.05,-26.2 -84.08,-52.02 -19.05,-25.81 -28.56,-54.36 -28.56,-85.65 0,-38.58 13.3,-71.96 39.89,-100.13 26.6,-28.15 63.36,-42.23 110.3,-42.23z"/>
            <path class="fil0"
                  d="M1992.72 2385.88l0 -300.37 93.09 0 0 298.02c0,42.77 12.52,77.97 37.55,105.61 25.03,27.64 57.61,41.45 97.78,41.45 41.19,0 74.18,-13.81 98.95,-41.45 24.76,-27.64 37.15,-62.84 37.15,-105.61l0 -298.02 93.88 0 0 300.37c0,71.45 -21,128.67 -62.97,171.7 -41.99,43.02 -97.39,64.54 -166.23,64.54 -68.83,0 -124.25,-21.52 -166.23,-64.54 -41.98,-43.02 -62.97,-100.25 -62.97,-171.7z"/>
            <path class="fil0"
                  d="M2778.86 2609.6l-93.87 0 0 -524.09 265.96 0c52.14,0 94.38,12.91 126.72,38.72 32.33,25.81 48.5,61.67 48.5,107.55 0,48.5 -17.21,85.01 -51.63,109.52l0 2.34c41.19,9.91 61.79,40.95 61.79,93.09l0 172.87 -93.87 0 0 -154.88c0,-21.9 -12,-32.85 -35.98,-32.85l-227.63 0 0 187.73zm0 -432.57l0 0 0 157.23 165.83 0c26.07,0 47.19,-7.17 63.36,-21.52 16.16,-14.33 24.24,-33.5 24.24,-57.49 0,-23.47 -8.34,-42.36 -25.02,-56.71 -16.71,-14.34 -37.55,-21.52 -62.58,-21.52l-165.83 0z"/>
            <path class="fil0"
                  d="M3675.28 2385.88l0 -300.37 93.08 0 0 298.02c0,42.77 12.52,77.97 37.55,105.61 25.03,27.64 57.62,41.45 97.78,41.45 41.19,0 74.18,-13.81 98.95,-41.45 24.77,-27.64 37.16,-62.84 37.16,-105.61l0 -298.02 93.87 0 0 300.37c0,71.45 -21,128.67 -62.97,171.7 -41.99,43.02 -97.39,64.54 -166.23,64.54 -68.83,0 -124.25,-21.52 -166.22,-64.54 -41.99,-43.02 -62.97,-100.25 -62.97,-171.7z"/>
            <polygon class="fil0"
                     points="4754.75,2455.5 4754.75,2085.51 4848.61,2085.51 4848.61,2609.6 4754.75,2609.6 4461.42,2215.36 4461.42,2609.6 4367.55,2609.6 4367.55,2085.51 4477.07,2085.51 "/>
            <polygon class="fil0" points="5096.56,2609.6 5096.56,2085.51 5190.44,2085.51 5190.44,2609.6 "/>
            <polygon class="fil0"
                     points="5653.5,2495.39 5824.03,2085.51 5924.93,2085.51 5702.78,2609.6 5600.3,2609.6 5378.16,2085.51 5480.63,2085.51 "/>
            <polygon class="fil0"
                     points="6502.21,2609.6 6107.19,2609.6 6107.19,2085.51 6502.21,2085.51 6502.21,2177.03 6201.05,2177.03 6201.05,2296.71 6473.26,2296.71 6473.26,2385.1 6201.05,2385.1 6201.05,2518.08 6502.21,2518.08 "/>
            <path class="fil0"
                  d="M6822.13 2609.6l-93.87 0 0 -524.09 265.95 0c52.15,0 94.39,12.91 126.73,38.72 32.33,25.81 48.5,61.67 48.5,107.55 0,48.5 -17.21,85.01 -51.63,109.52l0 2.34c41.19,9.91 61.79,40.95 61.79,93.09l0 172.87 -93.87 0 0 -154.88c0,-21.9 -12,-32.85 -35.98,-32.85l-227.63 0 0 187.73zm0 -432.57l0 0 0 157.23 165.83 0c26.07,0 47.19,-7.17 63.36,-21.52 16.16,-14.33 24.24,-33.5 24.24,-57.49 0,-23.47 -8.34,-42.36 -25.03,-56.71 -16.7,-14.34 -37.54,-21.52 -62.57,-21.52l-165.83 0z"/>
            <path class="fil0"
                  d="M7533.95 2085.51l263.62 0 0 91.52 -258.14 0c-16.7,0 -30,4.83 -39.89,14.48 -9.91,9.66 -14.87,20.99 -14.87,34.03 0,11.47 3.52,21.89 10.57,31.28 7.04,9.39 17.33,15.65 30.9,18.78l190.08 45.36c37.54,9.39 66.22,27.25 86.04,53.58 19.82,26.34 29.73,55.41 29.73,87.22 0,40.17 -13.69,74.84 -41.07,104.04 -27.38,29.21 -65.06,43.8 -113.03,43.8l-275.34 0 0 -91.52 271.43 0c17.73,0 31.81,-5.48 42.24,-16.43 10.42,-10.95 15.64,-23.46 15.64,-37.54 0,-12 -3.91,-23.08 -11.73,-33.25 -7.82,-10.17 -18.77,-16.82 -32.85,-19.95l-190.86 -45.37c-37.03,-8.86 -65.06,-26.2 -84.09,-52.02 -19.05,-25.81 -28.55,-54.36 -28.55,-85.65 0,-38.58 13.29,-71.96 39.88,-100.13 26.6,-28.15 63.36,-42.23 110.3,-42.23z"/>
            <polygon class="fil0" points="8045.52,2609.6 8045.52,2085.51 8139.39,2085.51 8139.39,2609.6 "/>
            <polygon class="fil0"
                     points="8341.98,2085.51 8799.58,2085.51 8799.58,2177.03 8617.32,2177.03 8617.32,2609.6 8524.23,2609.6 8524.23,2177.03 8341.98,2177.03 "/>
            <polygon class="fil0"
                     points="9357.3,2085.51 9466.04,2085.51 9251.7,2394.48 9251.7,2609.6 9157.84,2609.6 9157.84,2398.4 8943.51,2085.51 9054.58,2085.51 9205.55,2310.01 "/>
  </g>
        <g id="_878103280">
   <polygon class="fil1"
            points="1023.55,1608.77 1025.92,338.81 1656.16,338.81 1656.16,0 -0,0 -0,338.81 630.24,338.81 630.24,1608.77 "/>
            <path class="fil1"
                  d="M9081.64 0l-1205.99 0 -2.37 1606.4 395.67 0 0 -393.31 810.32 0c258.26,0 466.75,-208.51 466.75,-466.76l0 -279.58c2.37,-258.26 -206.13,-466.75 -464.38,-466.75zm80.56 881.39l0 0 -893.25 0 0 -542.57 893.25 0 0 542.57z"/>
            <path class="fil1"
                  d="M4447.23 1608.77l1025.91 0 0 -338.81 -1096.99 0 0 -931.15 1096.99 0 0 -338.81 -1025.91 0c-258.26,0 -466.76,208.5 -466.76,466.75l0 675.26c0,258.27 208.51,466.76 466.76,466.76z"/>
            <path class="fil1"
                  d="M2971.93 1606.4l851.91 -1606.4 -405.79 0 -519.35 979.29 -576.25 -979.29 -405.8 0 620.59 1072.42c49.71,85.9 139.48,138.6 236.48,138.84l1.97 0.01 -209.55 395.14 405.79 0z"/>
            <path class="fil1"
                  d="M6583.29 1211.26l1.97 0.01 -209.55 395.14 405.79 0 851.91 -1606.4 -405.79 0 -519.35 979.29 -576.25 -979.29 -405.79 0 620.58 1072.42c49.71,85.9 139.48,138.6 236.48,138.84z"/>
  </g>
 </g>
</svg>
